<svg width="512" height="512" version="1.1" xmlns="http://www.w3.org/2000/svg" desc="Created with imagetracer.js version 1.2.6" ><path fill="rgb(239,172,62)" stroke="rgb(239,172,62)" stroke-width="1" opacity="1" d="M 90.5 112 L 110 112.5 L 90.5 113 L 90.5 112 Z " /><path fill="rgb(239,172,62)" stroke="rgb(239,172,62)" stroke-width="1" opacity="1" d="M 111.5 117 L 112.5 119 L 111.5 117 Z " /><path fill="rgb(239,172,62)" stroke="rgb(239,172,62)" stroke-width="1" opacity="1" d="M 448.5 120 L 497 120.5 L 448.5 121 L 448.5 120 Z " /><path fill="rgb(239,172,62)" stroke="rgb(239,172,62)" stroke-width="1" opacity="1" d="M 67 161 L 78 161 L 78 183 L 67 183 L 67 161 Z " /><path fill="rgb(239,172,62)" stroke="rgb(239,172,62)" stroke-width="1" opacity="1" d="M 226 161 L 237 161 L 237 183 L 226 183 L 226 161 Z " /><path fill="rgb(239,172,62)" stroke="rgb(239,172,62)" stroke-width="1" opacity="1" d="M 386 161 L 396 161 L 396 183 L 386 183 L 386 161 Z " /><path fill="rgb(239,172,62)" stroke="rgb(239,172,62)" stroke-width="1" opacity="1" d="M 85.5 198 L 109 198.5 L 85.5 199 L 85.5 198 Z " /><path fill="rgb(239,172,62)" stroke="rgb(239,172,62)" stroke-width="1" opacity="1" d="M 244.5 198 L 268 198.5 L 244.5 199 L 244.5 198 Z " /><path fill="rgb(239,172,62)" stroke="rgb(239,172,62)" stroke-width="1" opacity="1" d="M 403.5 198 L 427 198.5 L 403.5 199 L 403.5 198 Z " /><path fill="rgb(239,172,62)" stroke="rgb(239,172,62)" stroke-width="1" opacity="1" d="M 53 428 L 92 428 L 92 450 L 53 450 L 53 428 Z " /><path fill="rgb(239,172,62)" stroke="rgb(239,172,62)" stroke-width="1" opacity="1" d="M 213.5 428 L 251 428 L 251 450 L 213.5 450 L 212 448.5 L 212 429.5 L 213.5 428 Z " /><path fill="rgb(239,172,62)" stroke="rgb(239,172,62)" stroke-width="1" opacity="1" d="M 372 428 L 410 428 L 410 450 L 372 450 L 372 428 Z " /><path fill="rgb(239,172,62)" stroke="rgb(239,172,62)" stroke-width="1" opacity="1" d="M 20.5 490 L 491 490.5 L 20.5 491 L 20.5 490 Z " /><path fill="rgb(113,82,39)" stroke="rgb(113,82,39)" stroke-width="1" opacity="0.996078431372549" d="M 254.5 21 L 258 21.5 L 254.5 22 L 254.5 21 Z " /><path fill="rgb(113,82,39)" stroke="rgb(113,82,39)" stroke-width="1" opacity="0.996078431372549" d="M 86.5 106 L 88.5 109 L 86.5 106 Z " /><path fill="rgb(113,82,39)" stroke="rgb(113,82,39)" stroke-width="1" opacity="0.996078431372549" d="M 111.5 108 L 111 109.5 L 110.5 111 L 110 109.5 L 111.5 108 Z " /><path fill="rgb(113,82,39)" stroke="rgb(113,82,39)" stroke-width="1" opacity="0.996078431372549" d="M 86.5 118 L 85.5 120 L 84 119.5 L 86.5 118 Z " /><path fill="rgb(113,82,39)" stroke="rgb(113,82,39)" stroke-width="1" opacity="0.996078431372549" d="M 20.5 145 L 492 145.5 L 20.5 146 L 20.5 145 Z " /><path fill="rgb(113,82,39)" stroke="rgb(113,82,39)" stroke-width="1" opacity="0.996078431372549" d="M 67.5 160 L 67 161.5 L 66.5 183 L 66 161.5 L 67.5 160 Z " /><path fill="rgb(113,82,39)" stroke="rgb(113,82,39)" stroke-width="1" opacity="0.996078431372549" d="M 444.5 160 L 446 161.5 L 446 182.5 L 445 182.5 L 445 161.5 L 444.5 160 Z " /><path fill="rgb(113,82,39)" stroke="rgb(113,82,39)" stroke-width="1" opacity="0.996078431372549" d="M 126.5 182 L 125.5 184 L 68 183.5 L 125.5 183 L 126.5 182 Z " /><path fill="rgb(113,82,39)" stroke="rgb(113,82,39)" stroke-width="1" opacity="0.996078431372549" d="M 385.5 182 L 386.5 183 L 444 183.5 L 386.5 184 L 385.5 182 Z " /><path fill="rgb(113,82,39)" stroke="rgb(113,82,39)" stroke-width="1" opacity="0.996078431372549" d="M 227.5 183 L 285 183.5 L 227.5 184 L 227.5 183 Z " /><path fill="rgb(113,82,39)" stroke="rgb(113,82,39)" stroke-width="1" opacity="0.996078431372549" d="M 243.5 198 L 244 200.5 L 243 200.5 L 243.5 198 Z " /><path fill="rgb(113,82,39)" stroke="rgb(113,82,39)" stroke-width="1" opacity="0.996078431372549" d="M 268.5 198 L 269 200.5 L 268 200.5 L 268.5 198 Z " /><path fill="rgb(113,82,39)" stroke="rgb(113,82,39)" stroke-width="1" opacity="0.996078431372549" d="M 109.5 200 L 110 205.5 L 109 205.5 L 109.5 200 Z " /><path fill="rgb(113,82,39)" stroke="rgb(113,82,39)" stroke-width="1" opacity="0.996078431372549" d="M 402.5 200 L 403 205.5 L 402 205.5 L 402.5 200 Z " /><path fill="rgb(113,82,39)" stroke="rgb(113,82,39)" stroke-width="1" opacity="0.996078431372549" d="M 83.5 205 L 84 211.5 L 83 211.5 L 83.5 205 Z " /><path fill="rgb(113,82,39)" stroke="rgb(113,82,39)" stroke-width="1" opacity="0.996078431372549" d="M 428.5 205 L 429 211.5 L 428 211.5 L 428.5 205 Z " /><path fill="rgb(113,82,39)" stroke="rgb(113,82,39)" stroke-width="1" opacity="0.996078431372549" d="M 242.5 211 L 243 217.5 L 242 217.5 L 242.5 211 Z " /><path fill="rgb(113,82,39)" stroke="rgb(113,82,39)" stroke-width="1" opacity="0.996078431372549" d="M 269.5 211 L 270 217.5 L 269 217.5 L 269.5 211 Z " /><path fill="rgb(113,82,39)" stroke="rgb(113,82,39)" stroke-width="1" opacity="0.996078431372549" d="M 110.5 216 L 111 222.5 L 110 222.5 L 110.5 216 Z " /><path fill="rgb(113,82,39)" stroke="rgb(113,82,39)" stroke-width="1" opacity="0.996078431372549" d="M 401.5 216 L 402 222.5 L 401 222.5 L 401.5 216 Z " /><path fill="rgb(113,82,39)" stroke="rgb(113,82,39)" stroke-width="1" opacity="0.996078431372549" d="M 82.5 222 L 83 227.5 L 82 227.5 L 82.5 222 Z " /><path fill="rgb(113,82,39)" stroke="rgb(113,82,39)" stroke-width="1" opacity="0.996078431372549" d="M 429.5 222 L 430 227.5 L 429 227.5 L 429.5 222 Z " /><path fill="rgb(113,82,39)" stroke="rgb(113,82,39)" stroke-width="1" opacity="0.996078431372549" d="M 241.5 227 L 242 233.5 L 241 233.5 L 241.5 227 Z " /><path fill="rgb(113,82,39)" stroke="rgb(113,82,39)" stroke-width="1" opacity="0.996078431372549" d="M 270.5 227 L 271 233.5 L 270 233.5 L 270.5 227 Z " /><path fill="rgb(113,82,39)" stroke="rgb(113,82,39)" stroke-width="1" opacity="0.996078431372549" d="M 111.5 233 L 112 238.5 L 111 238.5 L 111.5 233 Z " /><path fill="rgb(113,82,39)" stroke="rgb(113,82,39)" stroke-width="1" opacity="0.996078431372549" d="M 400.5 233 L 401 238.5 L 400 238.5 L 400.5 233 Z " /><path fill="rgb(113,82,39)" stroke="rgb(113,82,39)" stroke-width="1" opacity="0.996078431372549" d="M 81.5 238 L 82 244.5 L 81 244.5 L 81.5 238 Z " /><path fill="rgb(113,82,39)" stroke="rgb(113,82,39)" stroke-width="1" opacity="0.996078431372549" d="M 430.5 238 L 431 244.5 L 430 244.5 L 430.5 238 Z " /><path fill="rgb(113,82,39)" stroke="rgb(113,82,39)" stroke-width="1" opacity="0.996078431372549" d="M 240.5 244 L 241 249.5 L 240 249.5 L 240.5 244 Z " /><path fill="rgb(113,82,39)" stroke="rgb(113,82,39)" stroke-width="1" opacity="0.996078431372549" d="M 271.5 244 L 272 249.5 L 271 249.5 L 271.5 244 Z " /><path fill="rgb(113,82,39)" stroke="rgb(113,82,39)" stroke-width="1" opacity="0.996078431372549" d="M 112.5 249 L 113 255.5 L 112 255.5 L 112.5 249 Z " /><path fill="rgb(113,82,39)" stroke="rgb(113,82,39)" stroke-width="1" opacity="0.996078431372549" d="M 399.5 249 L 400 255.5 L 399 255.5 L 399.5 249 Z " /><path fill="rgb(113,82,39)" stroke="rgb(113,82,39)" stroke-width="1" opacity="0.996078431372549" d="M 80.5 255 L 81 260.5 L 80 260.5 L 80.5 255 Z " /><path fill="rgb(113,82,39)" stroke="rgb(113,82,39)" stroke-width="1" opacity="0.996078431372549" d="M 431.5 255 L 432 260.5 L 431 260.5 L 431.5 255 Z " /><path fill="rgb(113,82,39)" stroke="rgb(113,82,39)" stroke-width="1" opacity="0.996078431372549" d="M 239.5 260 L 240 266.5 L 239 266.5 L 239.5 260 Z " /><path fill="rgb(113,82,39)" stroke="rgb(113,82,39)" stroke-width="1" opacity="0.996078431372549" d="M 272.5 260 L 273 266.5 L 272 266.5 L 272.5 260 Z " /><path fill="rgb(113,82,39)" stroke="rgb(113,82,39)" stroke-width="1" opacity="0.996078431372549" d="M 113.5 265 L 114 271.5 L 113 271.5 L 113.5 265 Z " /><path fill="rgb(113,82,39)" stroke="rgb(113,82,39)" stroke-width="1" opacity="0.996078431372549" d="M 398.5 265 L 399 271.5 L 398 271.5 L 398.5 265 Z " /><path fill="rgb(113,82,39)" stroke="rgb(113,82,39)" stroke-width="1" opacity="0.996078431372549" d="M 79.5 271 L 80 277.5 L 79 277.5 L 79.5 271 Z " /><path fill="rgb(113,82,39)" stroke="rgb(113,82,39)" stroke-width="1" opacity="0.996078431372549" d="M 432.5 271 L 433 277.5 L 432 277.5 L 432.5 271 Z " /><path fill="rgb(113,82,39)" stroke="rgb(113,82,39)" stroke-width="1" opacity="0.996078431372549" d="M 238.5 277 L 239 282.5 L 238 282.5 L 238.5 277 Z " /><path fill="rgb(113,82,39)" stroke="rgb(113,82,39)" stroke-width="1" opacity="0.996078431372549" d="M 273.5 277 L 274 282.5 L 273 282.5 L 273.5 277 Z " /><path fill="rgb(113,82,39)" stroke="rgb(113,82,39)" stroke-width="1" opacity="0.996078431372549" d="M 114.5 282 L 115 287.5 L 114 287.5 L 114.5 282 Z " /><path fill="rgb(113,82,39)" stroke="rgb(113,82,39)" stroke-width="1" opacity="0.996078431372549" d="M 397.5 282 L 398 287.5 L 397 287.5 L 397.5 282 Z " /><path fill="rgb(113,82,39)" stroke="rgb(113,82,39)" stroke-width="1" opacity="0.996078431372549" d="M 78.5 287 L 79 293.5 L 78 293.5 L 78.5 287 Z " /><path fill="rgb(113,82,39)" stroke="rgb(113,82,39)" stroke-width="1" opacity="0.996078431372549" d="M 433.5 287 L 434 293.5 L 433 293.5 L 433.5 287 Z " /><path fill="rgb(113,82,39)" stroke="rgb(113,82,39)" stroke-width="1" opacity="0.996078431372549" d="M 237.5 293 L 238 299.5 L 237 299.5 L 237.5 293 Z " /><path fill="rgb(113,82,39)" stroke="rgb(113,82,39)" stroke-width="1" opacity="0.996078431372549" d="M 274.5 293 L 275 299.5 L 274 299.5 L 274.5 293 Z " /><path fill="rgb(113,82,39)" stroke="rgb(113,82,39)" stroke-width="1" opacity="0.996078431372549" d="M 115.5 298 L 116 304.5 L 115 304.5 L 115.5 298 Z " /><path fill="rgb(113,82,39)" stroke="rgb(113,82,39)" stroke-width="1" opacity="0.996078431372549" d="M 396.5 298 L 397 304.5 L 396 304.5 L 396.5 298 Z " /><path fill="rgb(113,82,39)" stroke="rgb(113,82,39)" stroke-width="1" opacity="0.996078431372549" d="M 77.5 304 L 78 309.5 L 77 309.5 L 77.5 304 Z " /><path fill="rgb(113,82,39)" stroke="rgb(113,82,39)" stroke-width="1" opacity="0.996078431372549" d="M 434.5 304 L 435 309.5 L 434 309.5 L 434.5 304 Z " /><path fill="rgb(113,82,39)" stroke="rgb(113,82,39)" stroke-width="1" opacity="0.996078431372549" d="M 236.5 309 L 237 315.5 L 236 315.5 L 236.5 309 Z " /><path fill="rgb(113,82,39)" stroke="rgb(113,82,39)" stroke-width="1" opacity="0.996078431372549" d="M 275.5 309 L 276 315.5 L 275 315.5 L 275.5 309 Z " /><path fill="rgb(113,82,39)" stroke="rgb(113,82,39)" stroke-width="1" opacity="0.996078431372549" d="M 116.5 314 L 117 320.5 L 116 320.5 L 116.5 314 Z " /><path fill="rgb(113,82,39)" stroke="rgb(113,82,39)" stroke-width="1" opacity="0.996078431372549" d="M 395.5 314 L 396 320.5 L 395 320.5 L 395.5 314 Z " /><path fill="rgb(113,82,39)" stroke="rgb(113,82,39)" stroke-width="1" opacity="0.996078431372549" d="M 76.5 320 L 77 326.5 L 76 326.5 L 76.5 320 Z " /><path fill="rgb(113,82,39)" stroke="rgb(113,82,39)" stroke-width="1" opacity="0.996078431372549" d="M 435.5 320 L 436 326.5 L 435 326.5 L 435.5 320 Z " /><path fill="rgb(113,82,39)" stroke="rgb(113,82,39)" stroke-width="1" opacity="0.996078431372549" d="M 235.5 326 L 236 331.5 L 235 331.5 L 235.5 326 Z " /><path fill="rgb(113,82,39)" stroke="rgb(113,82,39)" stroke-width="1" opacity="0.996078431372549" d="M 276.5 326 L 277 331.5 L 276 331.5 L 276.5 326 Z " /><path fill="rgb(113,82,39)" stroke="rgb(113,82,39)" stroke-width="1" opacity="0.996078431372549" d="M 117.5 331 L 118 336.5 L 117 336.5 L 117.5 331 Z " /><path fill="rgb(113,82,39)" stroke="rgb(113,82,39)" stroke-width="1" opacity="0.996078431372549" d="M 394.5 331 L 395 336.5 L 394 336.5 L 394.5 331 Z " /><path fill="rgb(113,82,39)" stroke="rgb(113,82,39)" stroke-width="1" opacity="0.996078431372549" d="M 75.5 336 L 76 342.5 L 75 342.5 L 75.5 336 Z " /><path fill="rgb(113,82,39)" stroke="rgb(113,82,39)" stroke-width="1" opacity="0.996078431372549" d="M 436.5 336 L 437 342.5 L 436 342.5 L 436.5 336 Z " /><path fill="rgb(113,82,39)" stroke="rgb(113,82,39)" stroke-width="1" opacity="0.996078431372549" d="M 234.5 342 L 235 348.5 L 234 348.5 L 234.5 342 Z " /><path fill="rgb(113,82,39)" stroke="rgb(113,82,39)" stroke-width="1" opacity="0.996078431372549" d="M 277.5 342 L 278 348.5 L 277 348.5 L 277.5 342 Z " /><path fill="rgb(113,82,39)" stroke="rgb(113,82,39)" stroke-width="1" opacity="0.996078431372549" d="M 118.5 347 L 119 353.5 L 118 353.5 L 118.5 347 Z " /><path fill="rgb(113,82,39)" stroke="rgb(113,82,39)" stroke-width="1" opacity="0.996078431372549" d="M 393.5 347 L 394 353.5 L 393 353.5 L 393.5 347 Z " /><path fill="rgb(113,82,39)" stroke="rgb(113,82,39)" stroke-width="1" opacity="0.996078431372549" d="M 74.5 353 L 75 358.5 L 74 358.5 L 74.5 353 Z " /><path fill="rgb(113,82,39)" stroke="rgb(113,82,39)" stroke-width="1" opacity="0.996078431372549" d="M 437.5 353 L 438 355.5 L 437 355.5 L 437.5 353 Z " /><path fill="rgb(113,82,39)" stroke="rgb(113,82,39)" stroke-width="1" opacity="0.996078431372549" d="M 233.5 358 L 234 364.5 L 233 364.5 L 233.5 358 Z " /><path fill="rgb(113,82,39)" stroke="rgb(113,82,39)" stroke-width="1" opacity="0.996078431372549" d="M 278.5 358 L 279 364.5 L 278 364.5 L 278.5 358 Z " /><path fill="rgb(113,82,39)" stroke="rgb(113,82,39)" stroke-width="1" opacity="0.996078431372549" d="M 119.5 364 L 120 369.5 L 119 369.5 L 119.5 364 Z " /><path fill="rgb(113,82,39)" stroke="rgb(113,82,39)" stroke-width="1" opacity="0.996078431372549" d="M 392.5 364 L 393 369.5 L 392 369.5 L 392.5 364 Z " /><path fill="rgb(113,82,39)" stroke="rgb(113,82,39)" stroke-width="1" opacity="0.996078431372549" d="M 73.5 369 L 74 375.5 L 73 375.5 L 73.5 369 Z " /><path fill="rgb(113,82,39)" stroke="rgb(113,82,39)" stroke-width="1" opacity="0.996078431372549" d="M 232.5 375 L 233 380.5 L 232 380.5 L 232.5 375 Z " /><path fill="rgb(113,82,39)" stroke="rgb(113,82,39)" stroke-width="1" opacity="0.996078431372549" d="M 279.5 375 L 280 380.5 L 279 380.5 L 279.5 375 Z " /><path fill="rgb(113,82,39)" stroke="rgb(113,82,39)" stroke-width="1" opacity="0.996078431372549" d="M 120.5 380 L 121 386.5 L 120 386.5 L 120.5 380 Z " /><path fill="rgb(113,82,39)" stroke="rgb(113,82,39)" stroke-width="1" opacity="0.996078431372549" d="M 391.5 380 L 392 386.5 L 391 386.5 L 391.5 380 Z " /><path fill="rgb(113,82,39)" stroke="rgb(113,82,39)" stroke-width="1" opacity="0.996078431372549" d="M 72.5 386 L 73 391.5 L 72 391.5 L 72.5 386 Z " /><path fill="rgb(113,82,39)" stroke="rgb(113,82,39)" stroke-width="1" opacity="0.996078431372549" d="M 439.5 389 L 440 391.5 L 439 391.5 L 439.5 389 Z " /><path fill="rgb(113,82,39)" stroke="rgb(113,82,39)" stroke-width="1" opacity="0.996078431372549" d="M 231.5 391 L 232 397.5 L 231 397.5 L 231.5 391 Z " /><path fill="rgb(113,82,39)" stroke="rgb(113,82,39)" stroke-width="1" opacity="0.996078431372549" d="M 280.5 391 L 281 397.5 L 280 397.5 L 280.5 391 Z " /><path fill="rgb(113,82,39)" stroke="rgb(113,82,39)" stroke-width="1" opacity="0.996078431372549" d="M 121.5 396 L 122 402.5 L 121 402.5 L 121.5 396 Z " /><path fill="rgb(113,82,39)" stroke="rgb(113,82,39)" stroke-width="1" opacity="0.996078431372549" d="M 390.5 396 L 391 402.5 L 390 402.5 L 390.5 396 Z " /><path fill="rgb(113,82,39)" stroke="rgb(113,82,39)" stroke-width="1" opacity="0.996078431372549" d="M 71.5 402 L 72 408.5 L 71 408.5 L 71.5 402 Z " /><path fill="rgb(113,82,39)" stroke="rgb(113,82,39)" stroke-width="1" opacity="0.996078431372549" d="M 440.5 402 L 441 408.5 L 440 408.5 L 440.5 402 Z " /><path fill="rgb(113,82,39)" stroke="rgb(113,82,39)" stroke-width="1" opacity="0.996078431372549" d="M 230.5 408 L 231 412.5 L 230 412.5 L 230.5 408 Z " /><path fill="rgb(113,82,39)" stroke="rgb(113,82,39)" stroke-width="1" opacity="0.996078431372549" d="M 281.5 408 L 282 412.5 L 281 412.5 L 281.5 408 Z " /><path fill="rgb(113,82,39)" stroke="rgb(113,82,39)" stroke-width="1" opacity="0.996078431372549" d="M 54.5 427 L 139.5 427 L 141 428.5 L 141 449.5 L 139.5 451 L 53 450.5 L 140 450 L 140 428.5 L 139.5 428 L 54.5 428 L 54.5 427 Z " /><path fill="rgb(113,82,39)" stroke="rgb(113,82,39)" stroke-width="1" opacity="0.996078431372549" d="M 213.5 427 L 299 427.5 L 213.5 428 L 213.5 427 Z " /><path fill="rgb(113,82,39)" stroke="rgb(113,82,39)" stroke-width="1" opacity="0.996078431372549" d="M 372.5 427 L 458 427.5 L 372 428 L 372 449.5 L 372.5 450 L 458.5 450 L 458.5 451 L 372.5 451 L 371 449.5 L 371 428.5 L 372.5 427 Z " /><path fill="rgb(113,82,39)" stroke="rgb(113,82,39)" stroke-width="1" opacity="0.996078431372549" d="M 52.5 429 L 53 448.5 L 52 448.5 L 52.5 429 Z " /><path fill="rgb(113,82,39)" stroke="rgb(113,82,39)" stroke-width="1" opacity="0.996078431372549" d="M 212.5 450 L 300 450.5 L 212.5 451 L 212.5 450 Z " /><path fill="rgb(113,82,39)" stroke="rgb(113,82,39)" stroke-width="1" opacity="0.996078431372549" d="M 20.5 465 L 492 465.5 L 20.5 466 L 20.5 465 Z " /><path fill="rgb(113,82,39)" stroke="rgb(113,82,39)" stroke-width="1" opacity="0.996078431372549" d="M 496.5 487 L 494.5 490 L 496.5 487 Z " /><path fill="rgb(113,82,39)" stroke="rgb(113,82,39)" stroke-width="1" opacity="0.996078431372549" d="M 17.5 489 L 20 490.5 L 18.5 491 L 17.5 489 Z " /><path fill="rgb(0,0,0)" stroke="rgb(0,0,0)" stroke-width="1" opacity="0.9803921568627451" d="M 252.5 6 Q 260.9 5.1 265.5 8 L 506.5 105 L 511 108.5 L 512 110.5 L 512 143.5 Q 509.6 152.5 502.5 157 L 496.5 160 L 461.5 160 L 460 161.5 L 460 187.5 L 454.5 195 Q 450.6 199 443 198 L 444 225.5 L 445 226.5 L 445 242.5 L 446 243.5 L 446 258.5 L 447 259.5 L 447 274.5 L 448 275.5 L 448 291.5 L 449 292.5 L 449 307.5 L 450 308.5 L 450 324.5 L 451 325.5 L 451 340.5 L 452 341.5 L 452 357.5 L 449.5 361 L 442.5 362 L 439 359.5 L 437 352.5 L 437 336.5 L 436 335.5 L 436 320.5 L 435 319.5 L 434 287.5 L 433 286.5 L 433 271.5 L 432 270.5 L 432 255.5 L 431 254.5 L 431 238.5 L 430 237.5 L 430 222.5 L 429 221.5 L 429 205.5 L 428 204.5 L 428 198 L 403.5 198 L 403 199.5 L 402 200.5 L 402 215.5 L 401 216.5 L 401 232.5 L 400 233.5 L 400 248.5 L 399 249.5 L 399 264.5 L 398 265.5 L 398 281.5 L 397 282.5 L 397 297.5 L 396 298.5 L 396 313.5 L 395 314.5 L 395 330.5 L 394 331.5 L 394 346.5 L 393 347.5 L 393 363.5 L 392 364.5 L 390 413 L 440.5 413 L 441 412.5 L 441 402.5 L 440 401.5 L 440 387.5 L 442.5 384 L 450.5 383 L 454 386.5 L 455 390.5 L 455 405.5 L 456 406.5 L 456 413 Q 466.8 412 471 418.5 L 474 424.5 L 474 451 L 496.5 451 L 506 456 L 512 467.5 L 512 488.5 Q 510.1 497.6 503.5 502 L 493.5 506 L 18.5 506 Q 8.8 504.2 4 497.5 L 0 488.5 L 0 467.5 L 6 456 L 15.5 451 L 38 451 L 38 424.5 L 43.5 416 Q 47.7 411.8 56 413 L 56 406.5 L 57 405.5 L 57 390.5 L 58 389.5 L 58 374.5 L 59 373.5 L 59 357.5 L 60 356.5 L 60 341.5 L 61 340.5 L 61 324.5 L 62 323.5 L 62 308.5 L 63 307.5 L 63 292.5 L 64 291.5 L 64 275.5 L 65 274.5 L 65 259.5 L 66 258.5 L 66 243.5 L 67 242.5 L 67 226.5 L 68 225.5 L 69 198 Q 59 198.8 55 192.5 L 52 187.5 L 52 161.5 L 50.5 160 L 15.5 160 Q 7.4 157.1 3 150.5 L 0 143.5 L 0 110.5 L 3.5 106 L 252.5 6 Z M 255 21 L 47 105 L 83 105 L 86 106 L 90 113 L 88 118 L 84 120 L 15 120 L 15 142 L 16 144 L 21 146 L 492 146 L 496 144 L 497 142 L 497 120 L 116 120 L 114 119 L 110 114 L 112 107 L 118 105 L 465 105 L 261 22 L 255 21 Z M 68 160 L 66 162 L 66 183 L 69 184 L 126 184 L 127 183 L 127 160 L 68 160 Z M 142 160 L 142 185 L 139 192 L 131 198 L 124 198 L 125 205 L 125 221 L 126 222 L 126 237 L 127 238 L 127 253 L 128 254 L 128 270 L 129 271 L 129 286 L 130 287 L 130 302 L 131 303 L 131 319 L 132 320 L 132 335 L 133 336 L 133 352 L 134 353 L 134 368 L 135 369 L 137 412 L 139 413 Q 146 412 149 415 L 153 420 L 156 429 L 156 451 L 197 451 L 197 426 L 199 421 L 209 413 L 215 413 L 216 412 L 216 397 L 217 396 L 217 380 L 218 379 L 218 364 L 219 363 L 219 347 L 220 346 L 220 331 L 221 330 L 221 315 L 222 314 L 222 298 L 223 297 L 223 282 L 224 281 L 224 266 L 225 265 L 225 249 L 226 248 L 228 198 Q 222 199 219 196 Q 213 193 211 186 L 211 160 L 142 160 Z M 226 160 L 226 183 L 228 184 L 285 184 L 286 183 L 286 160 L 226 160 Z M 301 160 L 301 186 L 299 191 Q 295 198 284 198 L 286 248 L 287 249 L 287 265 L 288 266 L 288 281 L 289 282 L 289 297 L 290 298 L 290 314 L 291 315 L 291 330 L 292 331 L 292 346 L 293 347 L 293 363 L 294 364 L 294 379 L 295 380 L 295 396 L 296 397 L 296 412 L 298 413 Q 305 412 308 415 Q 313 418 315 426 L 315 451 L 356 451 L 356 429 L 359 420 L 368 413 L 374 413 L 375 412 L 375 402 L 376 401 L 376 385 L 377 384 L 379 336 L 380 335 L 380 320 L 381 319 L 381 303 L 382 302 L 382 287 L 383 286 L 384 254 L 385 253 L 385 238 L 386 237 L 387 205 L 388 198 Q 381 199 378 196 Q 371 193 370 185 L 370 160 L 301 160 Z M 385 160 L 385 183 L 387 184 L 444 184 L 445 183 L 446 183 L 446 162 L 445 160 L 385 160 Z M 84 198 L 84 205 L 83 206 L 83 222 L 82 223 L 82 238 L 81 239 L 81 255 L 80 256 L 80 271 L 79 272 L 79 287 L 78 288 L 77 320 L 76 321 L 76 336 L 75 337 L 74 369 L 73 370 L 72 402 L 71 403 L 71 413 L 72 413 L 122 413 L 120 365 L 119 364 L 119 348 L 118 347 L 118 332 L 117 331 L 117 315 L 116 314 L 116 299 L 115 298 L 115 283 L 114 282 L 114 266 L 113 265 L 113 250 L 112 249 L 112 234 L 111 233 L 111 217 L 110 216 L 110 201 L 109 200 L 109 198 L 84 198 Z M 243 198 L 242 227 L 241 228 L 241 244 L 240 245 L 240 260 L 239 261 L 239 277 L 238 278 L 238 293 L 237 294 L 237 309 L 236 310 L 236 326 L 235 327 L 235 342 L 234 343 L 234 358 L 233 359 L 233 375 L 232 376 L 232 391 L 231 392 L 231 408 L 230 409 Q 229 413 231 413 L 282 413 L 281 408 L 281 392 L 280 391 L 280 376 L 279 375 L 279 359 L 278 358 L 278 343 L 277 342 L 277 327 L 276 326 L 274 278 L 273 277 L 270 212 L 269 211 L 269 198 L 243 198 Z M 55 427 L 52 430 L 52 449 L 53 450 L 54 451 L 140 451 L 141 450 L 141 429 L 140 427 L 55 427 Z M 214 427 L 212 429 L 212 451 L 300 451 L 300 451 L 300 429 L 299 427 L 214 427 Z M 373 427 L 371 429 L 371 450 L 373 451 L 459 451 L 459 451 L 459 429 L 458 427 L 373 427 Z M 21 465 L 16 467 L 15 470 L 15 488 L 19 491 L 493 491 L 497 488 L 497 470 L 496 467 L 492 465 L 21 465 Z " /><path fill="rgb(249,138,48)" stroke="rgb(249,138,48)" stroke-width="1" opacity="1" d="M 253.5 22 L 261.5 23 L 463 104.5 L 115.5 105 L 110 109.5 L 109.5 112 L 90 112 L 86.5 106 L 84.5 105 L 49 104.5 L 253.5 22 Z " /><path fill="rgb(249,138,48)" stroke="rgb(249,138,48)" stroke-width="1" opacity="1" d="M 68.5 160 L 124.5 160 L 127 161 L 127 181.5 L 125.5 183 L 78 183 L 78 161 L 68.5 161 L 68.5 160 Z " /><path fill="rgb(249,138,48)" stroke="rgb(249,138,48)" stroke-width="1" opacity="1" d="M 227.5 160 L 284.5 160 L 286 161.5 L 286 183 L 237 183 L 237 161 L 227.5 161 L 227.5 160 Z " /><path fill="rgb(249,138,48)" stroke="rgb(249,138,48)" stroke-width="1" opacity="1" d="M 386.5 160 L 443.5 160 L 445 161.5 L 445 183 L 396 183 L 396 161 L 386 161 L 385.5 182 L 385 161.5 L 386.5 160 Z " /><path fill="rgb(249,138,48)" stroke="rgb(249,138,48)" stroke-width="1" opacity="1" d="M 72.5 412 L 122 412.5 L 72.5 413 L 72.5 412 Z " /><path fill="rgb(249,138,48)" stroke="rgb(249,138,48)" stroke-width="1" opacity="1" d="M 231.5 412 L 281 412.5 L 231.5 413 L 231.5 412 Z " /><path fill="rgb(249,138,48)" stroke="rgb(249,138,48)" stroke-width="1" opacity="1" d="M 390.5 412 L 440 412.5 L 390.5 413 L 390.5 412 Z " /><path fill="rgb(249,138,48)" stroke="rgb(249,138,48)" stroke-width="1" opacity="1" d="M 92 428 L 140 428 L 140 450 L 92 450 L 92 428 Z " /><path fill="rgb(249,138,48)" stroke="rgb(249,138,48)" stroke-width="1" opacity="1" d="M 251 428 L 300 428 L 300 450 L 251 450 L 251 428 Z " /><path fill="rgb(249,138,48)" stroke="rgb(249,138,48)" stroke-width="1" opacity="1" d="M 410 428 L 459 428 L 459 450 L 410 450 L 410 428 Z " /><path fill="rgb(0,0,0)" stroke="rgb(0,0,0)" stroke-width="1" opacity="0" d="M 0 0 L 511.5 0 L 512 0.5 L 512 109.5 L 511 109.5 L 508.5 106 L 265.5 8 Q 260.9 5.1 252.5 6 L 5.5 105 L 1 108.5 L 0.5 110 L 0 0 Z " /><path fill="rgb(0,0,0)" stroke="rgb(0,0,0)" stroke-width="1" opacity="0" d="M 0.5 144 Q 2.6 152.9 9.5 157 L 15.5 160 L 50.5 160 L 52 161.5 L 52 187.5 L 57.5 195 Q 61.4 199 69 198 L 68 225.5 L 67 226.5 L 67 242.5 L 66 243.5 L 66 258.5 L 65 259.5 L 65 274.5 L 64 275.5 L 64 291.5 L 63 292.5 L 63 307.5 L 62 308.5 L 62 323.5 L 61 324.5 L 61 340.5 L 60 341.5 L 60 356.5 L 59 357.5 L 59 373.5 L 58 374.5 L 58 389.5 L 57 390.5 L 57 405.5 L 56 406.5 L 56 413 Q 45.2 412 41 418.5 L 38 424.5 L 38 451 L 15.5 451 L 6 456 L 0.5 467 L 0.5 144 Z " /><path fill="rgb(0,0,0)" stroke="rgb(0,0,0)" stroke-width="1" opacity="0" d="M 511.5 144 L 512 466.5 L 511 466.5 L 506 456 L 496.5 451 L 474 451 L 474 424.5 L 468.5 416 Q 464.3 411.8 456 413 L 456 406.5 L 455 405.5 L 455 390.5 L 454 386.5 L 450.5 383 L 447 383 L 447 374.5 L 446 373.5 L 446 362 L 451 359.5 L 452 357.5 L 452 341.5 L 451 340.5 L 451 325.5 L 450 324.5 L 450 308.5 L 449 307.5 L 449 292.5 L 448 291.5 L 448 275.5 L 447 274.5 L 447 259.5 L 446 258.5 L 446 243.5 L 445 242.5 L 445 226.5 L 444 225.5 L 443 198 Q 453 198.8 457 192.5 L 460 187.5 L 460 161.5 L 461.5 160 L 496.5 160 Q 504.6 157.1 509 150.5 L 511.5 144 Z " /><path fill="rgb(0,0,0)" stroke="rgb(0,0,0)" stroke-width="1" opacity="0" d="M 142 160 L 211 160 L 211 185.5 Q 212.8 192.7 218.5 196 Q 221.8 199 228 198 L 226 247.5 L 225 248.5 L 225 264.5 L 224 265.5 L 224 280.5 L 223 281.5 L 223 296.5 L 222 297.5 L 222 313.5 L 221 314.5 L 221 329.5 L 220 330.5 L 220 345.5 L 219 346.5 L 219 362.5 L 218 363.5 L 218 378.5 L 217 379.5 L 217 395.5 L 216 396.5 L 216 411.5 L 214.5 413 L 208.5 413 L 199 420.5 L 197 425.5 L 197 451 L 156 451 L 156 428.5 L 153 419.5 L 148.5 415 Q 145.5 412 138.5 413 L 137 411.5 L 135 368.5 L 134 367.5 L 134 352.5 L 133 351.5 L 133 335.5 L 132 334.5 L 132 319.5 L 131 318.5 L 131 302.5 L 130 301.5 L 130 286.5 L 129 285.5 L 129 270.5 L 128 269.5 L 128 253.5 L 127 252.5 L 127 237.5 L 126 236.5 L 126 221.5 L 125 220.5 L 125 204.5 L 124 198 L 130.5 198 L 139 191.5 L 142 184.5 L 142 160 Z " /><path fill="rgb(0,0,0)" stroke="rgb(0,0,0)" stroke-width="1" opacity="0" d="M 301 160 L 370 160 L 370 184.5 Q 371.2 192.8 377.5 196 Q 381 199.2 388 198 L 387 204.5 L 386 236.5 L 385 237.5 L 385 252.5 L 384 253.5 L 383 285.5 L 382 286.5 L 382 301.5 L 381 302.5 L 381 318.5 L 380 319.5 L 380 334.5 L 379 335.5 L 377 383.5 L 376 384.5 L 376 400.5 L 375 401.5 L 375 411.5 L 373.5 413 L 367.5 413 L 359 419.5 L 356 428.5 L 356 451 L 315 451 L 315 425.5 Q 313.2 418.3 307.5 415 Q 304.5 412 297.5 413 L 296 411.5 L 296 396.5 L 295 395.5 L 295 379.5 L 294 378.5 L 294 363.5 L 293 362.5 L 293 346.5 L 292 345.5 L 292 330.5 L 291 329.5 L 291 314.5 L 290 313.5 L 290 297.5 L 289 296.5 L 289 281.5 L 288 280.5 L 288 265.5 L 287 264.5 L 287 248.5 L 286 247.5 L 284 198 Q 294.9 198.1 299 190.5 L 301 185.5 L 301 160 Z " /><path fill="rgb(0,0,0)" stroke="rgb(0,0,0)" stroke-width="1" opacity="0" d="M 0.5 489 Q 1.9 498.1 8.5 502 L 18.5 506 L 493.5 506 Q 503.2 504.2 508 497.5 L 511.5 489 L 512 512 L 0.5 512 L 0 511.5 L 0.5 489 Z " /><path fill="rgb(233,202,111)" stroke="rgb(233,202,111)" stroke-width="1" opacity="1" d="M 88.5 117 L 87.5 119 L 88.5 117 Z " /><path fill="rgb(233,202,111)" stroke="rgb(233,202,111)" stroke-width="1" opacity="1" d="M 15.5 120 L 83 120.5 L 15.5 121 L 15.5 120 Z " /><path fill="rgb(233,202,111)" stroke="rgb(233,202,111)" stroke-width="1" opacity="1" d="M 117.5 120 L 447.5 120 L 448.5 121 L 497 121 L 497 139.5 L 494.5 144 L 492.5 145 L 448 145 L 448 121.5 L 447.5 121 L 117.5 121 L 117.5 120 Z " /><path fill="rgb(233,202,111)" stroke="rgb(233,202,111)" stroke-width="1" opacity="1" d="M 243.5 204 L 244 206.5 L 243 206.5 L 243.5 204 Z " /><path fill="rgb(233,202,111)" stroke="rgb(233,202,111)" stroke-width="1" opacity="1" d="M 268.5 204 L 269 206.5 L 268 206.5 L 268.5 204 Z " /><path fill="rgb(233,202,111)" stroke="rgb(233,202,111)" stroke-width="1" opacity="1" d="M 109.5 209 L 110 211.5 L 109 211.5 L 109.5 209 Z " /><path fill="rgb(233,202,111)" stroke="rgb(233,202,111)" stroke-width="1" opacity="1" d="M 402.5 209 L 403 211.5 L 402 211.5 L 402.5 209 Z " /><path fill="rgb(233,202,111)" stroke="rgb(233,202,111)" stroke-width="1" opacity="1" d="M 83.5 214 L 84 217.5 L 83 217.5 L 83.5 214 Z " /><path fill="rgb(233,202,111)" stroke="rgb(233,202,111)" stroke-width="1" opacity="1" d="M 428.5 214 L 429 217.5 L 428 217.5 L 428.5 214 Z " /><path fill="rgb(233,202,111)" stroke="rgb(233,202,111)" stroke-width="1" opacity="1" d="M 242.5 220 L 243 222.5 L 242 222.5 L 242.5 220 Z " /><path fill="rgb(233,202,111)" stroke="rgb(233,202,111)" stroke-width="1" opacity="1" d="M 269.5 220 L 270 222.5 L 269 222.5 L 269.5 220 Z " /><path fill="rgb(233,202,111)" stroke="rgb(233,202,111)" stroke-width="1" opacity="1" d="M 110.5 225 L 111 228.5 L 110 228.5 L 110.5 225 Z " /><path fill="rgb(233,202,111)" stroke="rgb(233,202,111)" stroke-width="1" opacity="1" d="M 401.5 225 L 402 228.5 L 401 228.5 L 401.5 225 Z " /><path fill="rgb(233,202,111)" stroke="rgb(233,202,111)" stroke-width="1" opacity="1" d="M 82.5 231 L 83 233.5 L 82 233.5 L 82.5 231 Z " /><path fill="rgb(233,202,111)" stroke="rgb(233,202,111)" stroke-width="1" opacity="1" d="M 429.5 231 L 430 233.5 L 429 233.5 L 429.5 231 Z " /><path fill="rgb(233,202,111)" stroke="rgb(233,202,111)" stroke-width="1" opacity="1" d="M 241.5 236 L 242 239.5 L 241 239.5 L 241.5 236 Z " /><path fill="rgb(233,202,111)" stroke="rgb(233,202,111)" stroke-width="1" opacity="1" d="M 270.5 236 L 271 239.5 L 270 239.5 L 270.5 236 Z " /><path fill="rgb(233,202,111)" stroke="rgb(233,202,111)" stroke-width="1" opacity="1" d="M 111.5 242 L 112 244.5 L 111 244.5 L 111.5 242 Z " /><path fill="rgb(233,202,111)" stroke="rgb(233,202,111)" stroke-width="1" opacity="1" d="M 400.5 242 L 401 244.5 L 400 244.5 L 400.5 242 Z " /><path fill="rgb(233,202,111)" stroke="rgb(233,202,111)" stroke-width="1" opacity="1" d="M 81.5 247 L 82 250.5 L 81 250.5 L 81.5 247 Z " /><path fill="rgb(233,202,111)" stroke="rgb(233,202,111)" stroke-width="1" opacity="1" d="M 430.5 247 L 431 250.5 L 430 250.5 L 430.5 247 Z " /><path fill="rgb(233,202,111)" stroke="rgb(233,202,111)" stroke-width="1" opacity="1" d="M 240.5 253 L 241 255.5 L 240 255.5 L 240.5 253 Z " /><path fill="rgb(233,202,111)" stroke="rgb(233,202,111)" stroke-width="1" opacity="1" d="M 271.5 253 L 272 255.5 L 271 255.5 L 271.5 253 Z " /><path fill="rgb(233,202,111)" stroke="rgb(233,202,111)" stroke-width="1" opacity="1" d="M 112.5 258 L 113 260.5 L 112 260.5 L 112.5 258 Z " /><path fill="rgb(233,202,111)" stroke="rgb(233,202,111)" stroke-width="1" opacity="1" d="M 399.5 258 L 400 260.5 L 399 260.5 L 399.5 258 Z " /><path fill="rgb(233,202,111)" stroke="rgb(233,202,111)" stroke-width="1" opacity="1" d="M 80.5 264 L 81 266.5 L 80 266.5 L 80.5 264 Z " /><path fill="rgb(233,202,111)" stroke="rgb(233,202,111)" stroke-width="1" opacity="1" d="M 431.5 264 L 432 266.5 L 431 266.5 L 431.5 264 Z " /><path fill="rgb(233,202,111)" stroke="rgb(233,202,111)" stroke-width="1" opacity="1" d="M 239.5 269 L 240 272.5 L 239 272.5 L 239.5 269 Z " /><path fill="rgb(233,202,111)" stroke="rgb(233,202,111)" stroke-width="1" opacity="1" d="M 272.5 269 L 273 272.5 L 272 272.5 L 272.5 269 Z " /><path fill="rgb(233,202,111)" stroke="rgb(233,202,111)" stroke-width="1" opacity="1" d="M 113.5 274 L 114 277.5 L 113 277.5 L 113.5 274 Z " /><path fill="rgb(233,202,111)" stroke="rgb(233,202,111)" stroke-width="1" opacity="1" d="M 398.5 274 L 399 277.5 L 398 277.5 L 398.5 274 Z " /><path fill="rgb(233,202,111)" stroke="rgb(233,202,111)" stroke-width="1" opacity="1" d="M 79.5 280 L 80 282.5 L 79 282.5 L 79.5 280 Z " /><path fill="rgb(233,202,111)" stroke="rgb(233,202,111)" stroke-width="1" opacity="1" d="M 432.5 280 L 433 282.5 L 432 282.5 L 432.5 280 Z " /><path fill="rgb(233,202,111)" stroke="rgb(233,202,111)" stroke-width="1" opacity="1" d="M 238.5 286 L 239 288.5 L 238 288.5 L 238.5 286 Z " /><path fill="rgb(233,202,111)" stroke="rgb(233,202,111)" stroke-width="1" opacity="1" d="M 273.5 286 L 274 288.5 L 273 288.5 L 273.5 286 Z " /><path fill="rgb(233,202,111)" stroke="rgb(233,202,111)" stroke-width="1" opacity="1" d="M 114.5 291 L 115 293.5 L 114 293.5 L 114.5 291 Z " /><path fill="rgb(233,202,111)" stroke="rgb(233,202,111)" stroke-width="1" opacity="1" d="M 397.5 291 L 398 293.5 L 397 293.5 L 397.5 291 Z " /><path fill="rgb(233,202,111)" stroke="rgb(233,202,111)" stroke-width="1" opacity="1" d="M 78.5 296 L 79 299.5 L 78 299.5 L 78.5 296 Z " /><path fill="rgb(233,202,111)" stroke="rgb(233,202,111)" stroke-width="1" opacity="1" d="M 433.5 296 L 434 299.5 L 433 299.5 L 433.5 296 Z " /><path fill="rgb(233,202,111)" stroke="rgb(233,202,111)" stroke-width="1" opacity="1" d="M 237.5 302 L 238 304.5 L 237 304.5 L 237.5 302 Z " /><path fill="rgb(233,202,111)" stroke="rgb(233,202,111)" stroke-width="1" opacity="1" d="M 274.5 302 L 275 304.5 L 274 304.5 L 274.5 302 Z " /><path fill="rgb(233,202,111)" stroke="rgb(233,202,111)" stroke-width="1" opacity="1" d="M 115.5 307 L 116 309.5 L 115 309.5 L 115.5 307 Z " /><path fill="rgb(233,202,111)" stroke="rgb(233,202,111)" stroke-width="1" opacity="1" d="M 396.5 307 L 397 309.5 L 396 309.5 L 396.5 307 Z " /><path fill="rgb(233,202,111)" stroke="rgb(233,202,111)" stroke-width="1" opacity="1" d="M 77.5 313 L 78 315.5 L 77 315.5 L 77.5 313 Z " /><path fill="rgb(233,202,111)" stroke="rgb(233,202,111)" stroke-width="1" opacity="1" d="M 434.5 313 L 435 315.5 L 434 315.5 L 434.5 313 Z " /><path fill="rgb(233,202,111)" stroke="rgb(233,202,111)" stroke-width="1" opacity="1" d="M 236.5 318 L 237 321.5 L 236 321.5 L 236.5 318 Z " /><path fill="rgb(233,202,111)" stroke="rgb(233,202,111)" stroke-width="1" opacity="1" d="M 275.5 318 L 276 321.5 L 275 321.5 L 275.5 318 Z " /><path fill="rgb(233,202,111)" stroke="rgb(233,202,111)" stroke-width="1" opacity="1" d="M 116.5 323 L 117 326.5 L 116 326.5 L 116.5 323 Z " /><path fill="rgb(233,202,111)" stroke="rgb(233,202,111)" stroke-width="1" opacity="1" d="M 395.5 323 L 396 326.5 L 395 326.5 L 395.5 323 Z " /><path fill="rgb(233,202,111)" stroke="rgb(233,202,111)" stroke-width="1" opacity="1" d="M 76.5 329 L 77 331.5 L 76 331.5 L 76.5 329 Z " /><path fill="rgb(233,202,111)" stroke="rgb(233,202,111)" stroke-width="1" opacity="1" d="M 435.5 329 L 436 331.5 L 435 331.5 L 435.5 329 Z " /><path fill="rgb(233,202,111)" stroke="rgb(233,202,111)" stroke-width="1" opacity="1" d="M 235.5 335 L 236 337.5 L 235 337.5 L 235.5 335 Z " /><path fill="rgb(233,202,111)" stroke="rgb(233,202,111)" stroke-width="1" opacity="1" d="M 276.5 335 L 277 337.5 L 276 337.5 L 276.5 335 Z " /><path fill="rgb(233,202,111)" stroke="rgb(233,202,111)" stroke-width="1" opacity="1" d="M 117.5 340 L 118 342.5 L 117 342.5 L 117.5 340 Z " /><path fill="rgb(233,202,111)" stroke="rgb(233,202,111)" stroke-width="1" opacity="1" d="M 394.5 340 L 395 342.5 L 394 342.5 L 394.5 340 Z " /><path fill="rgb(233,202,111)" stroke="rgb(233,202,111)" stroke-width="1" opacity="1" d="M 75.5 345 L 76 348.5 L 75 348.5 L 75.5 345 Z " /><path fill="rgb(233,202,111)" stroke="rgb(233,202,111)" stroke-width="1" opacity="1" d="M 436.5 346 L 437 348.5 L 436 348.5 L 436.5 346 Z " /><path fill="rgb(233,202,111)" stroke="rgb(233,202,111)" stroke-width="1" opacity="1" d="M 234.5 351 L 235 353.5 L 234 353.5 L 234.5 351 Z " /><path fill="rgb(233,202,111)" stroke="rgb(233,202,111)" stroke-width="1" opacity="1" d="M 277.5 351 L 278 353.5 L 277 353.5 L 277.5 351 Z " /><path fill="rgb(233,202,111)" stroke="rgb(233,202,111)" stroke-width="1" opacity="1" d="M 118.5 356 L 119 358.5 L 118 358.5 L 118.5 356 Z " /><path fill="rgb(233,202,111)" stroke="rgb(233,202,111)" stroke-width="1" opacity="1" d="M 393.5 356 L 394 358.5 L 393 358.5 L 393.5 356 Z " /><path fill="rgb(233,202,111)" stroke="rgb(233,202,111)" stroke-width="1" opacity="1" d="M 438.5 359 L 439.5 361 L 438.5 359 Z " /><path fill="rgb(233,202,111)" stroke="rgb(233,202,111)" stroke-width="1" opacity="1" d="M 74.5 362 L 75 364.5 L 74 364.5 L 74.5 362 Z " /><path fill="rgb(233,202,111)" stroke="rgb(233,202,111)" stroke-width="1" opacity="1" d="M 233.5 367 L 234 370.5 L 233 370.5 L 233.5 367 Z " /><path fill="rgb(233,202,111)" stroke="rgb(233,202,111)" stroke-width="1" opacity="1" d="M 278.5 367 L 279 370.5 L 278 370.5 L 278.5 367 Z " /><path fill="rgb(233,202,111)" stroke="rgb(233,202,111)" stroke-width="1" opacity="1" d="M 119.5 373 L 120 375.5 L 119 375.5 L 119.5 373 Z " /><path fill="rgb(233,202,111)" stroke="rgb(233,202,111)" stroke-width="1" opacity="1" d="M 392.5 373 L 393 375.5 L 392 375.5 L 392.5 373 Z " /><path fill="rgb(233,202,111)" stroke="rgb(233,202,111)" stroke-width="1" opacity="1" d="M 73.5 378 L 74 380.5 L 73 380.5 L 73.5 378 Z " /><path fill="rgb(233,202,111)" stroke="rgb(233,202,111)" stroke-width="1" opacity="1" d="M 442.5 383 L 440.5 386 L 442.5 383 Z " /><path fill="rgb(233,202,111)" stroke="rgb(233,202,111)" stroke-width="1" opacity="1" d="M 232.5 384 L 233 386.5 L 232 386.5 L 232.5 384 Z " /><path fill="rgb(233,202,111)" stroke="rgb(233,202,111)" stroke-width="1" opacity="1" d="M 279.5 384 L 280 386.5 L 279 386.5 L 279.5 384 Z " /><path fill="rgb(233,202,111)" stroke="rgb(233,202,111)" stroke-width="1" opacity="1" d="M 120.5 389 L 121 391.5 L 120 391.5 L 120.5 389 Z " /><path fill="rgb(233,202,111)" stroke="rgb(233,202,111)" stroke-width="1" opacity="1" d="M 391.5 389 L 392 391.5 L 391 391.5 L 391.5 389 Z " /><path fill="rgb(233,202,111)" stroke="rgb(233,202,111)" stroke-width="1" opacity="1" d="M 72.5 395 L 73 397.5 L 72 397.5 L 72.5 395 Z " /><path fill="rgb(233,202,111)" stroke="rgb(233,202,111)" stroke-width="1" opacity="1" d="M 439.5 395 L 440 397.5 L 439 397.5 L 439.5 395 Z " /><path fill="rgb(233,202,111)" stroke="rgb(233,202,111)" stroke-width="1" opacity="1" d="M 231.5 400 L 232 402.5 L 231 402.5 L 231.5 400 Z " /><path fill="rgb(233,202,111)" stroke="rgb(233,202,111)" stroke-width="1" opacity="1" d="M 280.5 400 L 281 402.5 L 280 402.5 L 280.5 400 Z " /><path fill="rgb(233,202,111)" stroke="rgb(233,202,111)" stroke-width="1" opacity="1" d="M 121.5 405 L 122 408.5 L 121 408.5 L 121.5 405 Z " /><path fill="rgb(233,202,111)" stroke="rgb(233,202,111)" stroke-width="1" opacity="1" d="M 390.5 405 L 391 408.5 L 390 408.5 L 390.5 405 Z " /><path fill="rgb(233,202,111)" stroke="rgb(233,202,111)" stroke-width="1" opacity="1" d="M 448 466 L 492.5 466 L 496 468.5 Q 498.8 474.8 497 485.5 L 493.5 490 L 448 490 L 448 466 Z " /><path fill="rgb(254,225,132)" stroke="rgb(254,225,132)" stroke-width="1" opacity="0.996078431372549" d="M 447.5 121 L 448 144.5 L 447 144.5 L 447.5 121 Z " /><path fill="rgb(254,225,132)" stroke="rgb(254,225,132)" stroke-width="1" opacity="0.996078431372549" d="M 447.5 466 L 448 489.5 L 447 489.5 L 447.5 466 Z " /><path fill="rgb(255,226,133)" stroke="rgb(255,226,133)" stroke-width="1" opacity="1" d="M 90 113 L 108.5 113 L 110 114.5 Q 109.5 119.5 113.5 120 L 116.5 121 L 447 121 L 447 144.5 L 446.5 145 L 20.5 145 L 16 141.5 L 15 138.5 L 15 121 L 83.5 121 L 89 117.5 L 90 113 Z " /><path fill="rgb(255,226,133)" stroke="rgb(255,226,133)" stroke-width="1" opacity="1" d="M 85 199 L 109 199 L 109 212.5 L 110 213.5 L 110 229.5 L 111 230.5 L 113 278.5 L 114 279.5 L 114 294.5 L 115 295.5 L 115 310.5 L 116 311.5 L 118 360.5 L 119 361.5 L 119 376.5 L 120 377.5 L 120 392.5 L 121 393.5 L 121 409.5 L 122 412 L 72.5 412 L 72 411.5 L 72 399.5 L 73 398.5 L 73 383.5 L 74 382.5 L 74 366.5 L 75 365.5 L 75 350.5 L 76 349.5 L 76 333.5 L 77 332.5 L 77 317.5 L 78 316.5 L 78 301.5 L 79 300.5 L 79 284.5 L 80 283.5 L 81 252.5 L 82 251.5 L 84 203.5 L 85 199 Z " /><path fill="rgb(255,226,133)" stroke="rgb(255,226,133)" stroke-width="1" opacity="1" d="M 244 199 L 268 199 L 268 207.5 L 269 208.5 L 269 224.5 L 270 225.5 L 270 240.5 L 271 241.5 L 272 273.5 L 273 274.5 L 273 289.5 L 274 290.5 L 275 322.5 L 276 323.5 L 276 338.5 L 277 339.5 L 277 354.5 L 278 355.5 L 278 371.5 L 279 372.5 L 279 387.5 L 280 388.5 L 280 404.5 L 281 405.5 L 281 412 L 231.5 412 Q 230.3 411.8 231 405.5 L 232 404.5 L 232 388.5 L 233 387.5 L 234 355.5 L 235 354.5 L 235 339.5 L 236 338.5 L 237 306.5 L 238 305.5 L 238 290.5 L 239 289.5 L 239 274.5 L 240 273.5 L 240 257.5 L 241 256.5 L 241 241.5 L 242 240.5 L 242 225.5 L 243 224.5 L 243 208.5 L 244 207.5 L 244 199 Z " /><path fill="rgb(255,226,133)" stroke="rgb(255,226,133)" stroke-width="1" opacity="1" d="M 403 199 L 426.5 199 L 427 202.5 L 428 203.5 L 428 218.5 L 429 219.5 L 429 234.5 L 430 235.5 L 430 251.5 L 431 252.5 L 431 267.5 L 432 268.5 L 432 283.5 L 433 284.5 L 436 349.5 Q 438.7 351.3 437 357.5 L 440.5 362 L 446 364.5 L 445 367.5 L 446 372.5 L 447 376.5 L 447 380.5 Q 447.8 383.1 444.5 382 L 440 385.5 L 439 387.5 L 439 398.5 L 440 399.5 L 440 412 L 390.5 412 L 390 410.5 L 391 409.5 L 391 393.5 L 392 392.5 L 392 377.5 L 393 376.5 L 393 361.5 L 394 360.5 L 394 344.5 L 395 343.5 L 395 328.5 L 396 327.5 L 396 311.5 L 397 310.5 L 397 295.5 L 398 294.5 L 398 279.5 L 399 278.5 L 399 262.5 L 400 261.5 L 400 246.5 L 401 245.5 L 403 199 Z " /><path fill="rgb(255,226,133)" stroke="rgb(255,226,133)" stroke-width="1" opacity="1" d="M 20.5 466 L 446.5 466 L 447 466.5 L 447 490 L 19.5 490 L 16 487.5 Q 13.5 482 15 472.5 L 18.5 467 L 20.5 466 Z " /></svg>